<?xml version="1.0" encoding="UTF-8"?>
<svg xmlns="http://www.w3.org/2000/svg" xmlns:xlink="http://www.w3.org/1999/xlink" width="25px" height="25px" viewBox="0 0 25 25" version="1.1">
<g id="surface1">
<path style="fill-rule:evenodd;fill:rgb(100%,100%,100%);fill-opacity:1;stroke-width:1;stroke-linecap:butt;stroke-linejoin:miter;stroke:rgb(100%,100%,100%);stroke-opacity:1;stroke-miterlimit:4;" d="M 12 18 C 15.315 18 18 15.315 18 12 C 18 8.685 15.315 6 12 6 C 8.685 6 6 8.685 6 12 C 6 15.315 8.685 18 12 18 Z M 12 16.00125 C 14.20875 16.00125 16.00125 14.20875 16.00125 12 C 16.00125 9.79125 14.20875 7.99875 12 7.99875 C 9.79125 7.99875 7.99875 9.79125 7.99875 12 C 7.99875 14.20875 9.79125 16.00125 12 16.00125 Z M 12 16.00125 " transform="matrix(1.041667,0,0,1.041667,0,0)"/>
<path style="fill-rule:nonzero;fill:rgb(100%,100%,100%);fill-opacity:1;stroke-width:1;stroke-linecap:butt;stroke-linejoin:miter;stroke:rgb(100%,100%,100%);stroke-opacity:1;stroke-miterlimit:4;" d="M 18 4.99875 C 17.44875 4.99875 16.99875 5.44875 16.99875 6 C 16.99875 6.55125 17.44875 7.00125 18 7.00125 C 18.55125 7.00125 19.00125 6.55125 19.00125 6 C 19.00125 5.44875 18.55125 4.99875 18 4.99875 Z M 18 4.99875 " transform="matrix(1.041667,0,0,1.041667,0,0)"/>
<path style="fill-rule:evenodd;fill:rgb(100%,100%,100%);fill-opacity:1;stroke-width:1;stroke-linecap:butt;stroke-linejoin:miter;stroke:rgb(100%,100%,100%);stroke-opacity:1;stroke-miterlimit:4;" d="M 1.65375 4.275 C 1.00125 5.56125 1.00125 7.24125 1.00125 10.60125 L 1.00125 13.39875 C 1.00125 16.75875 1.00125 18.43875 1.65375 19.725 C 2.2275 20.85375 3.14625 21.7725 4.275 22.34625 C 5.56125 22.99875 7.24125 22.99875 10.60125 22.99875 L 13.39875 22.99875 C 16.75875 22.99875 18.43875 22.99875 19.725 22.34625 C 20.85375 21.7725 21.7725 20.85375 22.34625 19.725 C 22.99875 18.43875 22.99875 16.75875 22.99875 13.39875 L 22.99875 10.60125 C 22.99875 7.24125 22.99875 5.56125 22.34625 4.275 C 21.7725 3.14625 20.85375 2.2275 19.725 1.65375 C 18.43875 1.00125 16.75875 1.00125 13.39875 1.00125 L 10.60125 1.00125 C 7.24125 1.00125 5.56125 1.00125 4.275 1.65375 C 3.14625 2.2275 2.2275 3.14625 1.65375 4.275 Z M 13.39875 3 L 10.60125 3 C 8.8875 3 7.72125 3 6.82125 3.075 C 5.94375 3.14625 5.4975 3.2775 5.1825 3.435 C 4.4325 3.82125 3.82125 4.4325 3.435 5.1825 C 3.2775 5.4975 3.14625 5.94375 3.075 6.82125 C 3 7.72125 3 8.8875 3 10.60125 L 3 13.39875 C 3 15.1125 3 16.27875 3.075 17.17875 C 3.14625 18.05625 3.2775 18.5025 3.435 18.8175 C 3.82125 19.5675 4.4325 20.17875 5.1825 20.565 C 5.4975 20.7225 5.94375 20.85375 6.82125 20.925 C 7.72125 21 8.8875 21 10.60125 21 L 13.39875 21 C 15.1125 21 16.27875 21 17.17875 20.925 C 18.05625 20.85375 18.5025 20.7225 18.8175 20.565 C 19.5675 20.17875 20.17875 19.5675 20.565 18.8175 C 20.7225 18.5025 20.85375 18.05625 20.925 17.17875 C 21 16.27875 21 15.1125 21 13.39875 L 21 10.60125 C 21 8.8875 21 7.72125 20.925 6.82125 C 20.85375 5.94375 20.7225 5.4975 20.565 5.1825 C 20.17875 4.4325 19.5675 3.82125 18.8175 3.435 C 18.5025 3.2775 18.05625 3.14625 17.17875 3.075 C 16.27875 3 15.1125 3 13.39875 3 Z M 13.39875 3 " transform="matrix(1.041667,0,0,1.041667,0,0)"/>
</g>
</svg>
